<svg width="110" height="108" viewBox="0 0 110 108" fill="none" xmlns="http://www.w3.org/2000/svg">
<path d="M104.607 61.4704C104.856 61.6688 104.99 61.981 104.969 62.2985C104.117 75.3077 99.3344 83.1305 90.1585 92.3903C80.8636 101.77 68.4947 107.309 55.4351 107.94C42.3755 108.57 29.5492 104.248 19.4276 95.8051C9.30592 87.3625 2.6051 75.3972 0.616206 62.2147C-1.37269 49.0321 1.49107 35.565 8.65571 24.4082C15.8203 13.2514 26.7789 5.19431 39.4199 1.78934C52.0609 -1.61562 65.49 -0.12753 77.1195 5.9669C88.4612 11.9105 97.3087 21.825 102.052 33.8751C102.253 34.3842 101.996 34.9559 101.486 35.1539L93.4558 38.2708C92.9361 38.4725 92.3529 38.2098 92.146 37.6921C88.3316 28.1459 81.2902 20.2941 72.2822 15.5735C62.9785 10.698 52.2353 9.5075 42.1225 12.2315C32.0097 14.9554 23.2429 21.4011 17.5112 30.3266C11.7794 39.252 9.48844 50.0257 11.0796 60.5717C12.6707 71.1178 18.0313 80.69 26.1286 87.444C34.226 94.1981 44.487 97.6561 54.9347 97.1517C65.3824 96.6473 75.2775 92.2162 82.7134 84.7123C90.0384 77.3202 93.7132 71.9757 94.4021 61.6352C94.4219 61.3379 94.5698 61.0586 94.813 60.8865C98.3651 58.3725 100.621 58.2936 104.607 61.4704Z" fill="#F4AF00"/>
<path d="M91.9032 55.71C98.0239 52.0668 105.635 52.018 108.26 54.7139C108.608 55.0709 108.693 55.5913 108.613 56.0833C108.329 57.8267 106.141 58.4148 104.757 57.3176C101.898 55.0511 98.781 54.7162 92.8234 57.3613C92.1909 57.6422 91.4619 57.1899 91.4619 56.4978C91.4619 56.1758 91.6265 55.8747 91.9032 55.71Z" fill="#662517" stroke="#662517"/>
<path d="M89.5947 55.7645C62.6054 62.9987 48.7469 69.1575 26.6411 61.8546C43.7656 69.5473 56.6228 70.0724 87.898 59.8356C88.3838 59.6766 88.7946 60.2637 88.4626 60.6524C82.497 67.6383 73.1033 79.4111 54.5788 79.4111C35.0405 79.4111 27.5717 70.7089 20.172 58.3289C20.0025 58.0453 20.1506 57.6766 20.4686 57.5871C35.3613 53.3937 48.0171 44.8329 59.7321 42.9451C74.8023 41.7576 81.042 45.2997 89.8406 54.9426C90.0924 55.2186 89.9557 55.6678 89.5947 55.7645Z" fill="#95B411" stroke="#95B411"/>
</svg>
